<svg viewBox="0 0 512 512" >
<symbol id="badge">
    <path d="M512 256c0-37.75-23.75-69.88-57.13-82.38C469.6 141.2 463.8 101.8 437 75c-17.21-17.21-39.69-25.78-62.15-25.78c-12.46 0-24.92 2.637-36.47 7.9C325.9 23.75 293.8 0 256 0S186.1 23.75 173.6 57.12C162.1 51.86 149.6 49.23 137.1 49.22C114.6 49.22 92.13 57.79 75 75C48.25 101.8 42.37 141.2 57.12 173.6C23.75 186.1 0 218.3 0 256s23.75 69.88 57.12 82.38c-14.75 32.38-8.875 72 17.88 98.63c17.15 17.15 39.66 25.8 62.18 25.8c12.44 0 24.88-2.633 36.44-7.924C186.1 488.3 218.3 512 256 512s69.88-23.75 82.38-57.13c11.6 5.289 24.06 7.924 36.5 7.924c22.53 0 44.97-8.643 62.13-25.8c26.75-26.75 32.63-66.25 17.88-98.63C488.3 325.9 512 293.8 512 256zM449.3 323.4l-16.06 6.014l7.107 15.6c12.37 27.14 6.486 59.56-14.63 80.68c-13.62 13.62-31.66 21.11-50.81 21.11c-10.38 0-20.42-2.18-29.86-6.482l-15.61-7.115l-6.016 16.06C312.9 477.2 285.8 496 256 496s-56.92-18.78-67.39-46.74l-6.025-16.09l-15.62 7.148c-9.385 4.295-19.41 6.473-29.78 6.473c-19.19 0-37.26-7.498-50.9-21.14c-21.13-21.03-26.1-53.44-14.6-80.65l7.107-15.6l-16.06-6.014C34.78 312.9 16 285.8 16 256c0-29.84 18.78-56.92 46.74-67.39l16.06-6.014L71.69 166.1C59.32 139.8 65.2 107.4 86.34 86.29c13.52-13.58 31.55-21.06 50.78-21.06c10.27 0 20.6 2.234 29.87 6.461l15.6 7.107l6.016-16.06C199.1 34.78 226.2 16 256 16s56.92 18.78 67.39 46.74l6.016 16.06l15.6-7.109c9.277-4.227 19.6-6.461 29.84-6.461c19.19 0 37.24 7.49 50.84 21.09c21.12 21.12 26.99 53.54 14.63 80.68l-7.107 15.6l16.06 6.014C477.2 199.1 496 226.2 496 256C496 285.8 477.2 312.9 449.3 323.4z"></path>
  </symbol>
    <symbol id="_dis_like">
        <path d="M128 288V64.03C128 46.36 113.7 32.04 96 32.04H32c-17.67 0-32 14.32-32 31.1v223.1c0 17.67 14.33 31.1 32 31.1h64C113.7 320 128 305.7 128 288zM112 288c0 8.822-7.178 16-16 16H32C23.18 304 16 296.8 16 288V64c0-8.822 7.178-16 16-16h64c8.822 0 16 7.178 16 16V288zM475 231.9c4.203-7.719 6.453-16.36 6.453-25.2c0-22.23-13.81-41.75-34-49.66c2.281-5.969 3.453-12.25 3.453-18.55c0-20.81-12.12-39.38-30.8-48.13c.1719-1.656 .25-3.297 .25-4.938C420.4 55.98 396.2 32 366.5 32h-56.03C276 32 241.8 43.33 214.1 63.89L163.6 97.33C161.3 98.87 160 101.4 160 104c0 4.421 3.6 8.001 8.003 8.001c1.514 0 3.049-.4324 4.419-1.342l50.91-33.69C248.6 58.2 279.4 48 310.5 48h56.03c20.84 0 37.81 16.81 37.81 37.47c0 5.5-1.186 7.832-1.186 10.01c0 3.403 2.177 6.524 5.546 7.602c15.66 5.047 26.19 19.3 26.19 35.45c0 14.01-6.812 18.44-6.812 23.58c0 4.727 3.726 7.352 6.547 7.861c17.86 3.312 30.81 18.78 30.81 36.77c0 19.49-12.15 23.38-12.15 30.63c0 4.16 3.223 7.682 7.458 7.983C480.5 246.7 496 263 496 282.5C496 303.2 479 320 458.2 320h-143.5c-4.265 0-7.997 3.432-7.997 8.013c0 1.549 .4486 3.091 1.341 4.425l5.328 8C334.1 376.4 344 414 344 426.1C344 444.7 329.3 464 304.8 464c-51.82 0-19.32-70.26-98.31-133.4L172.8 305.6C171.3 304.5 169.7 303.1 168 303.1c-2.588 0-8.012 2.043-8.012 7.995c0 2.447 1.121 4.863 3.236 6.428l33.47 24.81C272.4 403.8 237.1 480 304.9 480C339.4 480 360 452.6 360 426.1c0-15.16-9.781-53.63-30.72-90.08h128.9C487.9 336 512 312 512 282.5C512 259.2 496.5 239 475 231.9z"/>
    </symbol>
    <symbol id="_like">
        <path d="M96 191.1H32c-17.67 0-32 14.33-32 31.1v223.1c0 17.67 14.33 31.1 32 31.1h64c17.67 0 32-14.32 32-31.1V223.1C128 206.3 113.7 191.1 96 191.1zM112 448c0 8.822-7.178 16-16 16H32c-8.822 0-16-7.178-16-16V224c0-8.822 7.178-16 16-16h64c8.822 0 16 7.178 16 16V448zM512 229.5C512 199.1 487.9 176 458.2 176h-128.9C350.2 139.5 360 101.1 360 85.92C360 59.42 339.4 32 304.9 32c-67.61 0-32.66 76.37-108.1 136.8L163.2 193.6C161.1 195.1 159.1 197.6 159.1 200c0 5.952 5.424 7.995 8.012 7.995c1.655 0 3.323-.5134 4.755-1.579l33.7-24.98C285.8 117.1 253.2 48 304.8 48C329.3 48 344 67.28 344 85.92c0 12.06-9.047 49.66-30.66 85.64l-5.328 8c-.8922 1.334-1.341 2.876-1.341 4.425C306.7 188.6 310.5 192 314.7 192h143.5C479 192 496 208.8 496 229.5c0 19.5-15.47 35.84-35.23 37.19c-4.233 .3008-7.458 3.821-7.458 7.983c0 7.198 12.15 11.17 12.15 30.63c0 17.98-12.95 33.45-30.81 36.77c-2.821 .5098-6.547 3.135-6.547 7.861c0 5.129 6.812 9.568 6.812 23.58c0 16.16-10.53 30.41-26.19 35.45c-3.368 1.078-5.546 4.199-5.546 7.602c0 2.175 1.186 4.507 1.186 10.01c0 20.66-16.97 37.47-37.81 37.47h-56.03c-31.09 0-61.94-10.2-87.19-28.98l-50.91-33.69c-1.37-.9092-2.904-1.342-4.419-1.342c-4.407 0-8.003 3.585-8.003 8.001c0 2.598 1.259 5.146 3.578 6.685l50.55 33.44C241.8 468.7 276 480 310.5 480h56.03c29.67 0 53.81-23.98 53.81-53.47c0-1.641-.0781-3.281-.25-4.938c18.67-8.75 30.8-27.31 30.8-48.13c0-6.297-1.172-12.58-3.453-18.55c20.19-7.906 34-27.42 34-49.66c0-8.844-2.25-17.48-6.453-25.2C496.5 273 512 252.8 512 229.5z"/>
    </symbol>
    <symbol id="truck-fast">
        <path d="M96 191.1H32c-17.67 0-32 14.33-32 31.1v223.1c0 17.67 14.33 31.1 32 31.1h64c17.67 0 32-14.32 32-31.1V223.1C128 206.3 113.7 191.1 96 191.1zM112 448c0 8.822-7.178 16-16 16H32c-8.822 0-16-7.178-16-16V224c0-8.822 7.178-16 16-16h64c8.822 0 16 7.178 16 16V448zM512 229.5C512 199.1 487.9 176 458.2 176h-128.9C350.2 139.5 360 101.1 360 85.92C360 59.42 339.4 32 304.9 32c-67.61 0-32.66 76.37-108.1 136.8L163.2 193.6C161.1 195.1 159.1 197.6 159.1 200c0 5.952 5.424 7.995 8.012 7.995c1.655 0 3.323-.5134 4.755-1.579l33.7-24.98C285.8 117.1 253.2 48 304.8 48C329.3 48 344 67.28 344 85.92c0 12.06-9.047 49.66-30.66 85.64l-5.328 8c-.8922 1.334-1.341 2.876-1.341 4.425C306.7 188.6 310.5 192 314.7 192h143.5C479 192 496 208.8 496 229.5c0 19.5-15.47 35.84-35.23 37.19c-4.233 .3008-7.458 3.821-7.458 7.983c0 7.198 12.15 11.17 12.15 30.63c0 17.98-12.95 33.45-30.81 36.77c-2.821 .5098-6.547 3.135-6.547 7.861c0 5.129 6.812 9.568 6.812 23.58c0 16.16-10.53 30.41-26.19 35.45c-3.368 1.078-5.546 4.199-5.546 7.602c0 2.175 1.186 4.507 1.186 10.01c0 20.66-16.97 37.47-37.81 37.47h-56.03c-31.09 0-61.94-10.2-87.19-28.98l-50.91-33.69c-1.37-.9092-2.904-1.342-4.419-1.342c-4.407 0-8.003 3.585-8.003 8.001c0 2.598 1.259 5.146 3.578 6.685l50.55 33.44C241.8 468.7 276 480 310.5 480h56.03c29.67 0 53.81-23.98 53.81-53.47c0-1.641-.0781-3.281-.25-4.938c18.67-8.75 30.8-27.31 30.8-48.13c0-6.297-1.172-12.58-3.453-18.55c20.19-7.906 34-27.42 34-49.66c0-8.844-2.25-17.48-6.453-25.2C496.5 273 512 252.8 512 229.5z"/>
</symbol>
    <symbol id="heart">

    </symbol>
</svg>