<?xml version="1.0" encoding="UTF-8"?>

<svg  viewBox="-5 -5 240 250" >
<g><path style="opacity:1"  d="M 102.5,7.5 C 113.972,4.90668 122.305,8.74002 127.5,19C 155.824,28.3223 173.324,47.489 180,76.5C 180.333,91.5 180.667,106.5 181,121.5C 182.543,145.597 193.543,163.931 214,176.5C 214.769,179.099 214.602,181.599 213.5,184C 178.559,185.157 143.559,185.657 108.5,185.5C 74.5,185.333 40.5,185.167 6.5,185C 5.58377,184.626 4.75044,184.126 4,183.5C 3.33333,181.167 3.33333,178.833 4,176.5C 23.8757,164.426 34.8757,146.759 37,123.5C 37.1246,106.469 37.7913,89.4693 39,72.5C 46.7356,45.0976 64.2356,27.2643 91.5,19C 93.3781,13.2916 97.0447,9.45824 102.5,7.5 Z"/></g>
<g><path style="opacity:1"  d="M 112.5,229.5 C 109.167,229.5 105.833,229.5 102.5,229.5C 89.0382,225.368 80.7048,216.368 77.5,202.5C 77.9767,201.522 78.6433,200.689 79.5,200C 99.5083,199.167 119.508,199.334 139.5,200.5C 139.931,201.293 140.265,202.127 140.5,203C 136.735,217.937 127.402,226.77 112.5,229.5 Z"/></g>
</svg>
