<?xml version="1.0" encoding="UTF-8"?>
<svg viewBox="70 20 210 194" >
<g><path  d="M 253.5,95.5 C 253.5,106.833 253.5,118.167 253.5,129.5C 229.5,129.5 205.5,129.5 181.5,129.5C 181.5,114.167 181.5,98.8333 181.5,83.5C 175.167,83.5 168.833,83.5 162.5,83.5C 162.5,98.8333 162.5,114.167 162.5,129.5C 138.5,129.5 114.5,129.5 90.5,129.5C 90.5,117.833 90.5,106.167 90.5,94.5C 92.2569,89.5746 95.5902,86.0746 100.5,84C 107.167,83.6667 113.833,83.3333 120.5,83C 118.641,81.4422 117.141,79.6089 116,77.5C 109.202,62.5132 112.702,50.6798 126.5,42C 146.208,38.6017 161.375,45.435 172,62.5C 176.167,55.6667 181.667,50.1667 188.5,46C 199.678,39.1643 211.011,38.831 222.5,45C 234.162,57.1497 234.496,69.6497 223.5,82.5C 230.886,83.1064 238.219,83.9397 245.5,85C 249.879,87.2105 252.546,90.7105 253.5,95.5 Z"/></g>
<g><path fill="#fefafb" d="M 134.5,57.5 C 144.033,58.6055 151.366,63.2722 156.5,71.5C 149.524,72.6644 142.524,72.8311 135.5,72C 129.248,67.3893 128.915,62.556 134.5,57.5 Z"/></g>
<g><path  fill="#fefafb" d="M 204.5,57.5 C 210.991,57.1559 213.825,60.1559 213,66.5C 212.215,68.286 211.049,69.786 209.5,71C 202.251,72.7612 194.917,72.9279 187.5,71.5C 191.972,65.3591 197.639,60.6925 204.5,57.5 Z"/></g>
<g><path  d="M 162.5,197.5 C 142.167,197.5 121.833,197.5 101.5,197.5C 95.8522,195.35 92.0188,191.35 90,185.5C 89.5001,173.838 89.3335,162.171 89.5,150.5C 113.833,150.5 138.167,150.5 162.5,150.5C 162.5,166.167 162.5,181.833 162.5,197.5 Z"/></g>
<g><path  d="M 181.5,151.5 C 205.5,151.5 229.5,151.5 253.5,151.5C 253.5,162.5 253.5,173.5 253.5,184.5C 252.343,190.988 248.676,195.322 242.5,197.5C 222.167,197.5 201.833,197.5 181.5,197.5C 181.5,182.167 181.5,166.833 181.5,151.5 Z"/></g>
</svg>
