<?xml version="1.0" encoding="UTF-8"?>
<svg xmlns="http://www.w3.org/2000/svg" viewBox="0 0 235 235" >
<g><path  d="M 146.5,59.5 C 146.5,88.5 146.5,117.5 146.5,146.5C 110.5,146.5 74.5,146.5 38.5,146.5C 36.5891,146.426 35.4224,145.426 35,143.5C 34.5017,140.183 34.335,136.85 34.5,133.5C 41.8333,133.5 49.1667,133.5 56.5,133.5C 56.5,130.833 56.5,128.167 56.5,125.5C 37.8333,125.5 19.1667,125.5 0.5,125.5C 4.29642,121.202 8.29642,117.036 12.5,113C 19.8258,112.5 27.1591,112.334 34.5,112.5C 34.5,110.167 34.5,107.833 34.5,105.5C 44.1667,105.5 53.8333,105.5 63.5,105.5C 63.5,102.833 63.5,100.167 63.5,97.5C 42.5,97.5 21.5,97.5 0.5,97.5C 4.62993,92.8688 8.96326,88.3688 13.5,84C 20.4921,83.5004 27.4921,83.3337 34.5,83.5C 34.5,81.1667 34.5,78.8333 34.5,76.5C 41.5,76.5 48.5,76.5 55.5,76.5C 55.5,74.5 55.5,72.5 55.5,70.5C 37.1667,69.8333 18.8333,69.1667 0.5,68.5C 4.96447,64.5368 9.2978,60.3702 13.5,56C 21.5207,55.8316 29.5207,55.3316 37.5,54.5C 39.6416,51.9272 42.3082,50.0938 45.5,49C 75.5,48.3333 105.5,48.3333 135.5,49C 141.314,50.315 144.981,53.815 146.5,59.5 Z"/></g>
<g><path d="M 224.5,157.5 C 224.5,162.167 224.5,166.833 224.5,171.5C 223.728,172.694 222.728,173.694 221.5,174.5C 218.167,174.5 214.833,174.5 211.5,174.5C 211.768,172.901 211.434,171.568 210.5,170.5C 207.766,157.931 200.099,150.098 187.5,147C 166.882,145.47 155.549,154.97 153.5,175.5C 137.5,175.5 121.5,175.5 105.5,175.5C 105.745,167.549 103.078,160.882 97.5,155.5C 116.326,154.503 135.326,154.17 154.5,154.5C 154.5,130.5 154.5,106.5 154.5,82.5C 155.254,79.909 156.921,78.0757 159.5,77C 168.833,76.3333 178.167,76.3333 187.5,77C 189.96,78.4578 192.127,80.2911 194,82.5C 201.333,91.8333 208.667,101.167 216,110.5C 217.432,125.108 217.932,139.775 217.5,154.5C 220.491,154.166 222.824,155.166 224.5,157.5 Z"/></g>
<g><path style="opacity:1" fill="#f6f6f6" d="M 168.5,90.5 C 173.179,90.3342 177.845,90.5008 182.5,91C 187.833,97.6667 193.167,104.333 198.5,111C 188.665,112.473 178.665,112.973 168.5,112.5C 168.5,105.167 168.5,97.8333 168.5,90.5 Z"/></g>
<g><path d="M 70.5,154.5 C 89.5201,153.021 98.3535,161.688 97,180.5C 93.0746,192.379 84.9079,197.546 72.5,196C 58.8255,191.152 53.6589,181.652 57,167.5C 60.0762,161.589 64.5762,157.255 70.5,154.5 Z"/></g>
<g><path  d="M 176.5,154.5 C 194.337,153.507 203.17,161.841 203,179.5C 199.991,190.68 192.657,196.347 181,196.5C 164.776,192.729 158.776,182.729 163,166.5C 166.225,160.986 170.725,156.986 176.5,154.5 Z"/></g>
<g><path  d="M 37.5,154.5 C 43.8421,154.334 50.1754,154.5 56.5,155C 50.6207,160.59 47.9541,167.423 48.5,175.5C 44.0887,175.979 39.922,175.312 36,173.5C 34.4372,168.282 34.1038,162.949 35,157.5C 36.045,156.627 36.8783,155.627 37.5,154.5 Z"/></g>
<g><path style="opacity:1" fill="#f5f5f5" d="M 179.5,167.5 C 189.11,167.936 191.776,172.436 187.5,181C 178.961,184.451 174.794,181.618 175,172.5C 176.707,170.963 178.207,169.296 179.5,167.5 Z"/></g>
<g><path style="opacity:1" fill="#f5f5f5" d="M 74.5,167.5 C 81.319,167.483 84.4856,170.817 84,177.5C 79.8334,183.759 75.1668,184.092 70,178.5C 68.7758,173.626 70.2758,169.959 74.5,167.5 Z"/></g>
</svg>
