<?xml version="1.0" encoding="UTF-8"?>
<svg xmlns="http://www.w3.org/2000/svg" version="1.1" viewBox="0 -20 247.000000 282.000000" style="shape-rendering:geometricPrecision; text-rendering:geometricPrecision; image-rendering:optimizeQuality; fill-rule:evenodd; clip-rule:evenodd" xmlns:xlink="http://www.w3.org/1999/xlink">
<g><path  d="M 137.5,-0.5 C 139.833,-0.5 142.167,-0.5 144.5,-0.5C 156.221,4.90868 161.888,14.242 161.5,27.5C 159.221,43.9497 155.054,59.9497 149,75.5C 147.876,78.4424 147.542,81.4424 148,84.5C 148.75,85.1258 149.584,85.6258 150.5,86C 168.833,86.3333 187.167,86.6667 205.5,87C 211.697,86.8398 216.864,89.0065 221,93.5C 227.918,106.517 225.085,116.684 212.5,124C 219.104,126.115 223.771,130.281 226.5,136.5C 226.5,139.5 226.5,142.5 226.5,145.5C 224.445,152.058 220.112,156.558 213.5,159C 216.266,160.467 218.766,162.3 221,164.5C 228.878,183.546 222.378,193.713 201.5,195C 203.96,196.458 206.127,198.291 208,200.5C 211.578,209.84 208.745,216.34 199.5,220C 156.785,222.804 114.452,220.137 72.5,212C 68.1794,211.501 63.8461,211.334 59.5,211.5C 59.5,179.167 59.5,146.833 59.5,114.5C 69.7966,113.102 78.2966,108.435 85,100.5C 92.6667,88.5 100.333,76.5 108,64.5C 115.162,57.0041 121.162,48.6708 126,39.5C 128.943,28.5656 131.61,17.5656 134,6.5C 134.653,3.86077 135.82,1.52743 137.5,-0.5 Z"/></g>
<g><path  d="M 48.5,221.5 C 33.5,221.5 18.5,221.5 3.5,221.5C 1.71039,219.728 0.377058,217.728 -0.5,215.5C -0.5,180.5 -0.5,145.5 -0.5,110.5C 0.717703,109.269 2.05104,108.102 3.5,107C 18.8333,106.333 34.1667,106.333 49.5,107C 50.3333,107.833 51.1667,108.667 52,109.5C 52.6667,145.5 52.6667,181.5 52,217.5C 50.6244,218.705 49.4577,220.038 48.5,221.5 Z"/></g>
<g><path style="opacity:1" fill="#f7f7f7" d="M 32.5,191.5 C 44.1914,191.687 48.358,197.353 45,208.5C 36.582,216.096 29.9154,214.763 25,204.5C 24.5162,202.087 24.8495,199.754 26,197.5C 28.0627,195.266 30.2294,193.266 32.5,191.5 Z"/></g>
</svg>
