<?xml version="1.0" standalone="no"?>
<svg version="1.0" xmlns="http://www.w3.org/2000/svg"
viewBox="0 0 225.000000 224.000000"
 preserveAspectRatio="xMidYMid meet">

<g transform="translate(0.000000,224.000000) scale(0.100000,-0.100000)"
>
<path d="M983 2229 c-667 -87 -1109 -738 -943 -1389 41 -162 136 -344 185
-356 38 -9 82 13 94 48 10 27 5 43 -49 152 -92 187 -125 367 -101 550 29 219
123 409 275 562 269 268 659 354 1020 223 249 -90 475 -316 566 -566 80 -223
78 -467 -6 -682 -96 -242 -303 -449 -545 -545 -124 -48 -193 -60 -354 -60
-180 -1 -263 18 -424 95 -57 27 -111 49 -121 49 -9 0 -29 -10 -44 -21 -23 -18
-27 -28 -24 -62 3 -35 9 -45 43 -69 22 -15 78 -43 124 -63 431 -182 913 -90
1240 236 438 439 438 1141 -1 1580 -243 242 -595 363 -935 318z"/>
<path d="M933 1383 c-18 -7 -19 -523 -1 -541 16 -16 63 -15 77 1 6 8 12 75 13
170 l3 157 118 -154 c136 -178 147 -189 179 -184 l23 3 3 265 c2 240 1 266
-15 278 -23 16 -48 15 -67 -4 -13 -13 -16 -44 -16 -181 l0 -166 -130 173 c-72
96 -136 178 -143 182 -13 9 -26 9 -44 1z"/>
<path d="M508 1369 c-16 -9 -18 -32 -18 -254 0 -134 3 -250 6 -259 5 -14 30
-16 169 -16 154 0 164 1 170 20 3 10 1 28 -5 40 -10 18 -20 20 -125 20 l-115
0 0 75 0 75 96 0 c105 0 134 9 134 43 0 40 -18 47 -127 47 l-103 0 0 65 0 65
101 0 c55 0 109 5 120 10 21 12 25 50 7 68 -15 15 -285 16 -310 1z"/>
<path d="M1452 1372 c-9 -7 -12 -67 -10 -268 l3 -259 123 -3 c104 -2 129 0
167 17 86 38 133 146 122 282 -10 122 -61 198 -151 224 -53 16 -232 20 -254 7z
m232 -87 c55 -26 71 -66 71 -175 0 -146 -32 -188 -150 -198 l-65 -5 0 197 0
196 56 0 c31 0 70 -7 88 -15z"/>
</g>
</svg>
